{
	"asset":{
		"generator":"Khronos glTF Blender I/O v4.0.44",
		"version":"2.0"
	},
	"scene":0,
	"scenes":[
		{
			"name":"Scene",
			"nodes":[
				2
			]
		}
	],
	"nodes":[
		{
			"mesh":0,
			"name":"Portaorologio con il mio nome v1.001"
		},
		{
			"children":[
				0
			],
			"name":"Portaorologio con il mio nome v1"
		},
		{
			"children":[
				1
			],
			"name":"Node_2"
		}
	],
	"materials":[
		{
			"doubleSided":true,
			"name":"Mat_1",
			"pbrMetallicRoughness":{
				"baseColorFactor":[
					0.35153260827064514,
					0.35153260827064514,
					0.35153260827064514,
					1
				],
				"metallicFactor":0,
				"roughnessFactor":0.20000000298023224
			}
		}
	],
	"meshes":[
		{
			"name":"Mesh_0",
			"primitives":[
				{
					"attributes":{
						"POSITION":0,
						"NORMAL":1
					},
					"indices":2,
					"material":0
				}
			]
		}
	],
	"accessors":[
		{
			"bufferView":0,
			"componentType":5126,
			"count":4519,
			"max":[
				37.626338958740234,
				27.960411071777344,
				26.89855194091797
			],
			"min":[
				-38.373661041259766,
				-26.245540618896484,
				-27.944887161254883
			],
			"type":"VEC3"
		},
		{
			"bufferView":1,
			"componentType":5126,
			"count":4519,
			"type":"VEC3"
		},
		{
			"bufferView":2,
			"componentType":5123,
			"count":20388,
			"type":"SCALAR"
		}
	],
	"bufferViews":[
		{
			"buffer":0,
			"byteLength":54228,
			"byteOffset":0,
			"target":34962
		},
		{
			"buffer":0,
			"byteLength":54228,
			"byteOffset":54228,
			"target":34962
		},
		{
			"buffer":0,
			"byteLength":40776,
			"byteOffset":108456,
			"target":34963
		}
	],
	"buffers":[
		{
			"byteLength":149232,
			"uri":"3dpea.bin"
		}
	]
}
