{
	"asset":{
		"generator":"Khronos glTF Blender I/O v4.0.44",
		"version":"2.0"
	},
	"scene":0,
	"scenes":[
		{
			"name":"Scene",
			"nodes":[
				2
			]
		}
	],
	"nodes":[
		{
			"mesh":0,
			"name":"Portaorologio con il mio nome v1.001"
		},
		{
			"children":[
				0
			],
			"name":"Portaorologio con il mio nome v1"
		},
		{
			"children":[
				1
			],
			"name":"Node_2"
		}
	],
	"materials":[
		{
			"doubleSided":true,
			"name":"Mat_1",
			"pbrMetallicRoughness":{
				"baseColorFactor":[
					0.35153260827064514,
					0.35153260827064514,
					0.35153260827064514,
					1
				],
				"metallicFactor":0,
				"roughnessFactor":0.5
			}
		}
	],
	"meshes":[
		{
			"name":"Mesh_0",
			"primitives":[
				{
					"attributes":{
						"POSITION":0,
						"NORMAL":1
					},
					"indices":2,
					"material":0
				}
			]
		}
	],
	"accessors":[
		{
			"bufferView":0,
			"componentType":5126,
			"count":4509,
			"max":[
				-1,
				50.20595169067383,
				25.078458786010742
			],
			"min":[
				-77,
				-4,
				-29.76498031616211
			],
			"type":"VEC3"
		},
		{
			"bufferView":1,
			"componentType":5126,
			"count":4509,
			"type":"VEC3"
		},
		{
			"bufferView":2,
			"componentType":5123,
			"count":20388,
			"type":"SCALAR"
		}
	],
	"bufferViews":[
		{
			"buffer":0,
			"byteLength":54108,
			"byteOffset":0,
			"target":34962
		},
		{
			"buffer":0,
			"byteLength":54108,
			"byteOffset":54108,
			"target":34962
		},
		{
			"buffer":0,
			"byteLength":40776,
			"byteOffset":108216,
			"target":34963
		}
	],
	"buffers":[
		{
			"byteLength":148992,
			"uri":"3dpea.bin"
		}
	]
}
