{
	"asset":{
		"generator":"Khronos glTF Blender I/O v4.0.44",
		"version":"2.0"
	},
	"scene":0,
	"scenes":[
		{
			"name":"Scene",
			"nodes":[
				0
			]
		}
	],
	"nodes":[
		{
			"mesh":0,
			"name":"Portaorologio canottieri",
			"rotation":[
				0.7071068286895752,
				0,
				0,
				0.7071068286895752
			],
			"translation":[
				39.75424575805664,
				-21.13517189025879,
				1.2580490112304688
			]
		}
	],
	"meshes":[
		{
			"name":"Portaorologio canottieri",
			"primitives":[
				{
					"attributes":{
						"POSITION":0,
						"NORMAL":1
					},
					"indices":2
				}
			]
		}
	],
	"accessors":[
		{
			"bufferView":0,
			"componentType":5126,
			"count":59598,
			"max":[
				-1,
				25.07904624938965,
				4
			],
			"min":[
				-77,
				-29.760461807250977,
				-50.20595169067383
			],
			"type":"VEC3"
		},
		{
			"bufferView":1,
			"componentType":5126,
			"count":59598,
			"type":"VEC3"
		},
		{
			"bufferView":2,
			"componentType":5123,
			"count":61416,
			"type":"SCALAR"
		}
	],
	"bufferViews":[
		{
			"buffer":0,
			"byteLength":715176,
			"byteOffset":0,
			"target":34962
		},
		{
			"buffer":0,
			"byteLength":715176,
			"byteOffset":715176,
			"target":34962
		},
		{
			"buffer":0,
			"byteLength":122832,
			"byteOffset":1430352,
			"target":34963
		}
	],
	"buffers":[
		{
			"byteLength":1553184,
			"uri":"3dpea.bin"
		}
	]
}
